<svg width="390" height="560" viewBox="0 0 390 560" fill="none" xmlns="http://www.w3.org/2000/svg">
<g clip-path="url(#clip0_19_271)">
<rect width="390" height="560" fill="#CBD2E0"/>
<path d="M392.407 -5.50781H-2.46329V575.661H392.407V-5.50781Z" fill="#F3F4F8"/>
<path d="M285.342 67.4359C284.483 69.1432 284.13 71.0612 284.327 72.9626L288.258 110.962C288.503 113.33 289.585 115.534 291.31 117.176L314.658 139.401C316.848 141.486 319.999 142.212 322.88 141.297V141.297C324.263 140.857 325.507 140.062 326.486 138.992L345.507 118.193C346.115 117.528 346.609 116.827 347.017 116.023C351.857 106.504 384.636 41.9764 384.134 41.2279C383.758 40.7615 369.391 18.1321 360.594 4.26533C357.155 -1.15649 349.575 -1.97356 345.052 2.58392L291.249 56.8014C290.507 57.5484 289.889 58.4077 289.415 59.3477L285.342 67.4359Z" fill="#FD9380"/>
<path opacity="0.2" d="M310.538 374.78L302.514 389.765L345.993 412.719L354.017 397.735L310.538 374.78Z" fill="#6CCBAB"/>
<path opacity="0.2" d="M358.49 398.85L350.466 413.835L366.516 422.308L374.54 407.324L358.49 398.85Z" fill="#6CCBAB"/>
<path opacity="0.1" d="M376.325 407.113L366.199 426.02L398.894 443.283L409.02 424.376L376.325 407.113Z" fill="#C5593A"/>
<path d="M252.012 -4.69968L249.57 18.1969L252.419 23.0456L264.627 20.8906L289.586 -7.52808L252.012 -4.69968Z" fill="#F9F9F9"/>
<path d="M364.6 -4.16089C369.619 1.6306 375.723 15.5032 375.723 15.5032L392.815 18.4663C392.815 18.4663 397.291 -2.81403 397.156 -3.0834C397.02 -3.48746 364.6 -4.16089 364.6 -4.16089Z" fill="#F9F9F9"/>
<path d="M392.544 30.9922L385.761 40.9589L392.951 44.5954L392.544 30.9922Z" fill="#F9F9F9"/>
<path d="M377.758 151.401L386.304 191.268C386.304 191.268 395.935 194.904 395.935 194.635C395.935 194.231 400.275 136.047 400.275 135.373C400.275 134.835 394.307 126.349 394.307 126.349L377.758 151.401Z" fill="#F9F9F9"/>
<path d="M380.606 471.28C376.401 478.957 366.634 481.651 358.902 477.476L306.542 448.653C298.81 444.477 296.097 434.78 300.303 427.103C304.508 419.426 314.274 416.732 322.006 420.907L374.366 449.73C382.098 454.04 384.811 463.603 380.606 471.28Z" fill="#F9F9F9"/>
<path d="M-0.42814 433.837C1.06399 434.511 124.097 504.009 124.097 504.009L133.727 523.403L115.958 575.931C115.958 575.931 -5.17581 582.8 -6.66794 579.029C-8.16006 575.257 -22.2674 496.87 -21.9961 494.715C-21.8605 492.56 -0.42814 433.837 -0.42814 433.837Z" fill="#F9F9F9"/>
<path d="M344.388 572.833C344.388 572.833 338.013 567.042 337.877 566.503C337.742 565.964 338.013 559.23 338.013 559.23C338.013 559.23 339.369 543.741 353.748 543.876C357.139 543.876 358.224 544.953 362.972 556.401C364.193 559.365 366.906 561.519 370.026 561.789C372.739 562.058 375.723 560.981 377.622 556.132C378.843 553.169 378.165 549.667 375.994 547.243L364.193 533.774C360.666 529.734 360.123 523.807 362.972 519.363L397.698 463.468L403.802 566.099C403.802 566.099 394.849 583.473 390.644 581.722C386.439 579.837 344.388 572.833 344.388 572.833Z" fill="#F9F9F9"/>
<path d="M193.819 466.835L200.059 465.219L223.662 478.822L212.539 499.833L217.693 502.392L215.387 507.375L184.053 489.058L193.819 466.835Z" fill="#F9F9F9"/>
<path d="M216.201 431.682C216.201 431.682 227.732 397.876 234.107 397.606C234.107 397.606 239.262 397.741 244.145 400.839C248.893 403.936 250.52 410.132 247.807 415.115L241.161 427.372C237.769 433.702 230.58 437.338 223.526 435.992C220.678 435.318 218.101 434.106 216.201 431.682Z" fill="#F9F9F9"/>
<path d="M248.35 371.478L243.873 382.253L255.946 386.697L268.833 377.539L275.751 381.983L285.789 379.155L293.927 369.323L291.621 364.878L248.35 371.478Z" fill="#F9F9F9"/>
<path d="M272.224 340.5L266.12 336.594L322.956 220.36L327.432 219.687L333.265 227.095L323.906 235.445L272.224 340.5Z" fill="#F9F9F9"/>
<path d="M268.154 499.026C271.41 501.719 275.343 503.47 279.277 505.356C281.855 506.568 284.839 507.78 287.416 506.568C290.4 505.221 291.35 501.18 290.129 498.083C289.044 494.985 286.467 492.695 283.889 490.54C279.277 486.5 272.359 481.516 265.984 485.153C260.287 488.116 264.492 495.928 268.154 499.026Z" fill="#F9F9F9"/>
<path d="M295.691 489.597C300.032 490.944 304.78 490.674 309.392 489.866C312.512 489.327 315.496 488.519 318.48 487.577C319.972 487.038 321.464 486.499 322.278 485.152C323.499 483.132 322.143 480.438 320.108 479.226C318.073 478.014 315.632 478.014 313.19 478.014C310.884 478.014 308.307 478.014 306.272 476.936C303.423 475.455 302.067 472.357 299.489 470.606C296.912 468.855 293.25 468.586 290.265 469.394C284.704 471.01 284.568 479.091 287.01 483.267C289.045 486.364 292.3 488.519 295.691 489.597Z" fill="#F9F9F9"/>
<g opacity="0.5">
<path opacity="0.5" d="M-0.15686 437.203L42.8435 460.773L55.5944 473.164L54.5092 478.821L35.5185 515.456" stroke="#4D2161" stroke-width="0.538403" stroke-miterlimit="10" stroke-linecap="round" stroke-linejoin="round" stroke-dasharray="2.15 2.15"/>
<path opacity="0.5" d="M52.3385 504.546L47.4552 513.301L28.0576 517.746L20.5969 527.578L20.0543 538.891L12.7294 553.303L0.385406 565.694" stroke="#4D2161" stroke-width="0.538403" stroke-miterlimit="10" stroke-linecap="round" stroke-linejoin="round" stroke-dasharray="2.15 2.15"/>
<path opacity="0.5" d="M43.6573 574.449L12.7296 553.303" stroke="#4D2161" stroke-width="0.538403" stroke-miterlimit="10" stroke-linecap="round" stroke-linejoin="round" stroke-dasharray="2.15 2.15"/>
<path opacity="0.5" d="M29.8209 544.009L20.0543 538.891" stroke="#4D2161" stroke-width="0.538403" stroke-miterlimit="10" stroke-linecap="round" stroke-linejoin="round" stroke-dasharray="2.15 2.15"/>
<path opacity="0.5" d="M58.7143 549.397L68.2097 532.426L68.8879 524.884L64.4115 520.439L47.4556 513.301" stroke="#4D2161" stroke-width="0.538403" stroke-miterlimit="10" stroke-linecap="round" stroke-linejoin="round" stroke-dasharray="2.15 2.15"/>
<g opacity="0.5">
<path opacity="0.5" d="M303.423 42.4395L300.167 45.2679" stroke="#4D2161" stroke-width="0.538403" stroke-miterlimit="10" stroke-linecap="round" stroke-linejoin="round"/>
<path opacity="0.5" d="M305.322 44.3252L302.066 47.2883" stroke="#4D2161" stroke-width="0.538403" stroke-miterlimit="10" stroke-linecap="round" stroke-linejoin="round"/>
<path opacity="0.5" d="M307.086 46.3457L303.83 49.1741" stroke="#4D2161" stroke-width="0.538403" stroke-miterlimit="10" stroke-linecap="round" stroke-linejoin="round"/>
<path opacity="0.5" d="M308.985 48.2314L305.729 51.1945" stroke="#4D2161" stroke-width="0.538403" stroke-miterlimit="10" stroke-linecap="round" stroke-linejoin="round"/>
<path opacity="0.5" d="M310.884 50.2512L307.628 53.0796" stroke="#4D2161" stroke-width="0.538403" stroke-miterlimit="10" stroke-linecap="round" stroke-linejoin="round"/>
<path opacity="0.5" d="M312.646 52.1375L309.391 55.1005" stroke="#4D2161" stroke-width="0.538403" stroke-miterlimit="10" stroke-linecap="round" stroke-linejoin="round"/>
</g>
<g opacity="0.5">
<path opacity="0.5" d="M335.571 9.71143L332.316 12.5398" stroke="#4D2161" stroke-width="0.538403" stroke-miterlimit="10" stroke-linecap="round" stroke-linejoin="round"/>
<path opacity="0.5" d="M337.47 11.5969L334.215 14.56" stroke="#4D2161" stroke-width="0.538403" stroke-miterlimit="10" stroke-linecap="round" stroke-linejoin="round"/>
<path opacity="0.5" d="M339.369 13.6177L336.114 16.4461" stroke="#4D2161" stroke-width="0.538403" stroke-miterlimit="10" stroke-linecap="round" stroke-linejoin="round"/>
<path opacity="0.5" d="M341.133 15.5024L337.877 18.4655" stroke="#4D2161" stroke-width="0.538403" stroke-miterlimit="10" stroke-linecap="round" stroke-linejoin="round"/>
<path opacity="0.5" d="M343.032 17.5232L339.776 20.3516" stroke="#4D2161" stroke-width="0.538403" stroke-miterlimit="10" stroke-linecap="round" stroke-linejoin="round"/>
<path opacity="0.5" d="M344.931 19.4092L341.675 22.3723" stroke="#4D2161" stroke-width="0.538403" stroke-miterlimit="10" stroke-linecap="round" stroke-linejoin="round"/>
</g>
<path opacity="0.5" d="M351.307 112.611C350.629 112.072 318.344 93.7549 318.344 93.7549" stroke="#4D2161" stroke-width="0.538403" stroke-miterlimit="10" stroke-linecap="round" stroke-linejoin="round" stroke-dasharray="2.15 2.15"/>
<path opacity="0.5" d="M345.609 21.6982L380.335 48.7701" stroke="#4D2161" stroke-width="0.538403" stroke-miterlimit="10" stroke-linecap="round" stroke-linejoin="round" stroke-dasharray="2.15 2.15"/>
<g opacity="0.5">
<g opacity="0.5">
<g opacity="0.5">
<path opacity="0.5" d="M58.0359 90.3879L59.2567 91.0614" stroke="#4D2161" stroke-width="0.538403" stroke-linecap="round" stroke-linejoin="round"/>
<path opacity="0.5" d="M61.6988 92.4084L88.2858 107.359L116.094 132.814L130.472 142.242L133.05 144.532" stroke="#4D2161" stroke-width="0.538403" stroke-linecap="round" stroke-linejoin="round" stroke-dasharray="2.15 2.15"/>
<path opacity="0.5" d="M133.999 145.474L135.084 146.552" stroke="#4D2161" stroke-width="0.538403" stroke-linecap="round" stroke-linejoin="round"/>
</g>
</g>
<path opacity="0.5" d="M131.286 142.646L184.731 136.451L221.22 171.873L214.573 179.011" stroke="#4D2161" stroke-width="0.538403" stroke-miterlimit="10" stroke-linecap="round" stroke-linejoin="round" stroke-dasharray="2.15 2.15"/>
<path opacity="0.5" d="M322.143 192.48L311.698 183.321L296.098 176.317L252.691 171.199L220.678 171.738" stroke="#4D2161" stroke-width="0.538403" stroke-miterlimit="10" stroke-linecap="round" stroke-linejoin="round" stroke-dasharray="2.15 2.15"/>
<path opacity="0.5" d="M295.691 132.275L297.726 216.049" stroke="#4D2161" stroke-width="0.538403" stroke-miterlimit="10" stroke-linecap="round" stroke-linejoin="round" stroke-dasharray="2.15 2.15"/>
<path opacity="0.5" d="M322.414 155.171L290.672 234.232" stroke="#4D2161" stroke-width="0.538403" stroke-miterlimit="10" stroke-linecap="round" stroke-linejoin="round" stroke-dasharray="2.15 2.15"/>
<path opacity="0.5" d="M285.382 247.027L195.311 434.645" stroke="#4D2161" stroke-width="0.538403" stroke-miterlimit="10" stroke-linecap="round" stroke-linejoin="round" stroke-dasharray="2.15 2.15"/>
<path opacity="0.5" d="M150.276 526.366L145.936 525.019L144.443 512.358L-2.32745 428.449" stroke="#4D2161" stroke-width="0.538403" stroke-miterlimit="10" stroke-linecap="round" stroke-linejoin="round" stroke-dasharray="2.15 2.15"/>
<path opacity="0.5" d="M124.097 575.392L145.936 525.019" stroke="#4D2161" stroke-width="0.538403" stroke-miterlimit="10" stroke-linecap="round" stroke-linejoin="round" stroke-dasharray="2.15 2.15"/>
<path opacity="0.5" d="M239.804 573.776C238.719 573.237 161.671 529.868 161.671 529.868" stroke="#4D2161" stroke-width="0.538403" stroke-miterlimit="10" stroke-linecap="round" stroke-linejoin="round" stroke-dasharray="2.15 2.15"/>
<path opacity="0.5" d="M151.498 574.179L168.59 533.369" stroke="#4D2161" stroke-width="0.538403" stroke-miterlimit="10" stroke-linecap="round" stroke-linejoin="round" stroke-dasharray="2.15 2.15"/>
<path opacity="0.5" d="M306.815 573.641C305.187 572.698 237.227 535.39 208.47 519.632C201.552 515.861 199.11 507.106 203.044 500.372L222.442 466.566" stroke="#4D2161" stroke-width="0.538403" stroke-miterlimit="10" stroke-linecap="round" stroke-linejoin="round" stroke-dasharray="2.15 2.15"/>
<path opacity="0.5" d="M-1.6489 365.686C-1.6489 364.204 147.157 236.118 147.157 236.118C147.157 236.118 98.5948 159.078 41.894 125.676L-8.83823 154.499" stroke="#4D2161" stroke-width="0.538403" stroke-miterlimit="10" stroke-linecap="round" stroke-linejoin="round" stroke-dasharray="2.15 2.15"/>
<path opacity="0.5" d="M246.723 44.9988L252.962 37.591L204.401 -4.43091" stroke="#4D2161" stroke-width="0.538403" stroke-miterlimit="10" stroke-linecap="round" stroke-linejoin="round" stroke-dasharray="2.15 2.15"/>
<path opacity="0.5" d="M244.552 44.4604C243.874 44.3257 199.788 5.80561 199.788 5.80561L197.211 7.8259L183.375 -4.16113" stroke="#4D2161" stroke-width="0.538403" stroke-miterlimit="10" stroke-linecap="round" stroke-linejoin="round" stroke-dasharray="2.15 2.15"/>
<path opacity="0.5" d="M179.034 6.883L168.453 -3.08374" stroke="#4D2161" stroke-width="0.538403" stroke-miterlimit="10" stroke-linecap="round" stroke-linejoin="round" stroke-dasharray="2.15 2.15"/>
<path opacity="0.5" d="M227.867 61.9689C227.731 61.5649 216.201 52.0022 216.201 52.0022L187.851 81.7677L212.946 107.089L155.024 164.734" stroke="#4D2161" stroke-width="0.538403" stroke-miterlimit="10" stroke-linecap="round" stroke-linejoin="round" stroke-dasharray="2.15 2.15"/>
<g opacity="0.5">
<path opacity="0.5" d="M282.533 92.1387L283.347 96.4486" stroke="#4D2161" stroke-width="0.538403" stroke-miterlimit="10" stroke-linecap="round" stroke-linejoin="round"/>
<path opacity="0.5" d="M285.246 91.6003L285.925 95.9103" stroke="#4D2161" stroke-width="0.538403" stroke-miterlimit="10" stroke-linecap="round" stroke-linejoin="round"/>
<path opacity="0.5" d="M287.824 91.0613L288.637 95.2365" stroke="#4D2161" stroke-width="0.538403" stroke-miterlimit="10" stroke-linecap="round" stroke-linejoin="round"/>
<path opacity="0.5" d="M290.536 90.5225L291.35 94.6977" stroke="#4D2161" stroke-width="0.538403" stroke-miterlimit="10" stroke-linecap="round" stroke-linejoin="round"/>
<path opacity="0.5" d="M293.114 89.9834L293.928 94.1587" stroke="#4D2161" stroke-width="0.538403" stroke-miterlimit="10" stroke-linecap="round" stroke-linejoin="round"/>
<path opacity="0.5" d="M295.827 89.4451L296.641 93.6203" stroke="#4D2161" stroke-width="0.538403" stroke-miterlimit="10" stroke-linecap="round" stroke-linejoin="round"/>
</g>
<path opacity="0.5" d="M393.222 70.05C392.815 70.05 286.331 57.2549 286.331 57.2549" stroke="#4D2161" stroke-width="0.538403" stroke-miterlimit="10" stroke-linecap="round" stroke-linejoin="round" stroke-dasharray="2.15 2.15"/>
<path opacity="0.5" d="M390.373 93.2164L345.067 64.1243" stroke="#4D2161" stroke-width="0.538403" stroke-miterlimit="10" stroke-linecap="round" stroke-linejoin="round" stroke-dasharray="2.15 2.15"/>
<path opacity="0.5" d="M296.098 91.196L335.164 138.201" stroke="#4D2161" stroke-width="0.538403" stroke-miterlimit="10" stroke-linecap="round" stroke-linejoin="round" stroke-dasharray="2.15 2.15"/>
<path opacity="0.5" d="M301.253 65.067C301.66 64.5283 365.414 1.49536 365.414 1.49536L383.862 42.0358L393.629 53.3494" stroke="#4D2161" stroke-width="0.538403" stroke-miterlimit="10" stroke-linecap="round" stroke-linejoin="round" stroke-dasharray="2.15 2.15"/>
<path opacity="0.5" d="M399.19 12.2704C398.783 12.001 368.127 7.96045 368.127 7.96045" stroke="#4D2161" stroke-width="0.538403" stroke-miterlimit="10" stroke-linecap="round" stroke-linejoin="round" stroke-dasharray="2.15 2.15"/>
<path opacity="0.5" d="M392.544 18.3311L359.446 100.759" stroke="#4D2161" stroke-width="0.538403" stroke-miterlimit="10" stroke-linecap="round" stroke-linejoin="round" stroke-dasharray="2.15 2.15"/>
<path opacity="0.5" d="M355.24 189.382L380.335 177.395L394.171 162.041" stroke="#4D2161" stroke-width="0.538403" stroke-miterlimit="10" stroke-linecap="round" stroke-linejoin="round" stroke-dasharray="2.15 2.15"/>
<path opacity="0.5" d="M326.076 195.308L329.196 199.079L317.123 233.558L222.712 420.233L176.863 512.897L289.315 578.219" stroke="#4D2161" stroke-width="0.538403" stroke-miterlimit="10" stroke-linecap="round" stroke-linejoin="round" stroke-dasharray="2.15 2.15"/>
<path opacity="0.5" d="M270.867 457.406L317.395 484.747" stroke="#4D2161" stroke-width="0.538403" stroke-miterlimit="10" stroke-linecap="round" stroke-linejoin="round" stroke-dasharray="2.15 2.15"/>
<path opacity="0.5" d="M330.417 464.545L299.354 519.227" stroke="#4D2161" stroke-width="0.538403" stroke-miterlimit="10" stroke-linecap="round" stroke-linejoin="round" stroke-dasharray="2.15 2.15"/>
<path opacity="0.5" d="M287.281 421.984C287.281 421.445 297.047 404.071 297.047 404.071L307.357 398.145L395.528 446.093" stroke="#4D2161" stroke-width="0.538403" stroke-miterlimit="10" stroke-linecap="round" stroke-linejoin="round" stroke-dasharray="2.15 2.15"/>
<path opacity="0.5" d="M303.558 360.703L395.799 411.614" stroke="#4D2161" stroke-width="0.538403" stroke-miterlimit="10" stroke-linecap="round" stroke-linejoin="round" stroke-dasharray="2.15 2.15"/>
<path opacity="0.5" d="M284.704 467.239L280.092 475.859C278.193 479.495 279.278 484.075 282.805 486.23L295.284 494.311C298.675 496.466 299.761 500.91 297.726 504.412L291.486 515.052" stroke="#4D2161" stroke-width="0.538403" stroke-miterlimit="10" stroke-linecap="round" stroke-linejoin="round" stroke-dasharray="2.15 2.15"/>
<path opacity="0.5" d="M62.5127 331.34L83.5381 348.176L148.92 381.443" stroke="#4D2161" stroke-width="0.538403" stroke-miterlimit="10" stroke-linecap="round" stroke-linejoin="round" stroke-dasharray="2.15 2.15"/>
<path opacity="0.5" d="M186.087 350.062L154.481 363.261L146.885 392.488" stroke="#4D2161" stroke-width="0.538403" stroke-miterlimit="10" stroke-linecap="round" stroke-linejoin="round" stroke-dasharray="2.15 2.15"/>
<path opacity="0.5" d="M61.6984 396.932C60.7489 396.394 5.13327 382.656 5.13327 382.656" stroke="#4D2161" stroke-width="0.538403" stroke-miterlimit="10" stroke-linecap="round" stroke-linejoin="round" stroke-dasharray="2.15 2.15"/>
<path opacity="0.5" d="M80.9603 312.619L-1.51355 387.1" stroke="#4D2161" stroke-width="0.538403" stroke-miterlimit="10" stroke-linecap="round" stroke-linejoin="round" stroke-dasharray="2.15 2.15"/>
<path opacity="0.5" d="M200.738 263.863V271.136L166.962 321.643C166.962 321.643 140.646 311.407 139.561 310.195C138.476 308.983 117.586 283.392 117.586 283.392L103.207 284.47" stroke="#4D2161" stroke-width="0.538403" stroke-miterlimit="10" stroke-linecap="round" stroke-linejoin="round" stroke-dasharray="2.15 2.15"/>
<path opacity="0.5" d="M178.898 320.565L174.422 336.189" stroke="#4D2161" stroke-width="0.538403" stroke-miterlimit="10" stroke-linecap="round" stroke-linejoin="round" stroke-dasharray="2.15 2.15"/>
<path opacity="0.5" d="M166.961 321.643L176.999 325.28" stroke="#4D2161" stroke-width="0.538403" stroke-miterlimit="10" stroke-linecap="round" stroke-linejoin="round" stroke-dasharray="2.15 2.15"/>
<path opacity="0.5" d="M217.558 341.038L237.634 345.348" stroke="#4D2161" stroke-width="0.538403" stroke-miterlimit="10" stroke-linecap="round" stroke-linejoin="round" stroke-dasharray="2.15 2.15"/>
<path opacity="0.5" d="M247.4 276.793L205.485 268.308L200.195 291.743" stroke="#4D2161" stroke-width="0.538403" stroke-miterlimit="10" stroke-linecap="round" stroke-linejoin="round" stroke-dasharray="2.15 2.15"/>
<path opacity="0.5" d="M150.276 313.966C150.276 313.966 194.633 276.389 194.226 275.85C193.819 275.311 158.686 237.195 158.686 237.195" stroke="#4D2161" stroke-width="0.538403" stroke-miterlimit="10" stroke-linecap="round" stroke-linejoin="round" stroke-dasharray="2.15 2.15"/>
<path opacity="0.5" d="M154.753 249.721L163.435 242.583" stroke="#4D2161" stroke-width="0.538403" stroke-miterlimit="10" stroke-linecap="round" stroke-linejoin="round" stroke-dasharray="2.15 2.15"/>
<path opacity="0.5" d="M85.1659 169.583L0.92868 240.024" stroke="#4D2161" stroke-width="0.538403" stroke-miterlimit="10" stroke-linecap="round" stroke-linejoin="round" stroke-dasharray="2.15 2.15"/>
<path opacity="0.5" d="M18.8337 224.265L26.43 234.502L35.2471 227.228L86.3863 288.241" stroke="#4D2161" stroke-width="0.538403" stroke-miterlimit="10" stroke-linecap="round" stroke-linejoin="round" stroke-dasharray="2.15 2.15"/>
<path opacity="0.5" d="M321.328 304.538L289.315 288.914" stroke="#4D2161" stroke-width="0.538403" stroke-miterlimit="10" stroke-linecap="round" stroke-linejoin="round" stroke-dasharray="2.15 2.15"/>
<path opacity="0.5" d="M335.029 242.179L349 230.596L346.966 225.747L359.174 215.511L352.934 210.124L365.685 199.483" stroke="#4D2161" stroke-width="0.538403" stroke-miterlimit="10" stroke-linecap="round" stroke-linejoin="round" stroke-dasharray="2.15 2.15"/>
<path opacity="0.5" d="M168.996 435.453L191.242 441.648L179.984 454.174L159.636 493.502L153.261 495.119L-1.24191 411.075" stroke="#4D2161" stroke-width="0.538403" stroke-miterlimit="10" stroke-linecap="round" stroke-linejoin="round" stroke-dasharray="2.15 2.15"/>
<g opacity="0.5">
<path opacity="0.5" d="M143.63 508.182L147.428 510.337" stroke="#4D2161" stroke-width="0.538403" stroke-miterlimit="10" stroke-linecap="round" stroke-linejoin="round"/>
<path opacity="0.5" d="M144.85 505.759L148.648 507.913" stroke="#4D2161" stroke-width="0.538403" stroke-miterlimit="10" stroke-linecap="round" stroke-linejoin="round"/>
<path opacity="0.5" d="M146.071 503.469L149.869 505.489" stroke="#4D2161" stroke-width="0.538403" stroke-miterlimit="10" stroke-linecap="round" stroke-linejoin="round"/>
<path opacity="0.5" d="M147.428 501.045L151.226 503.2" stroke="#4D2161" stroke-width="0.538403" stroke-miterlimit="10" stroke-linecap="round" stroke-linejoin="round"/>
<path opacity="0.5" d="M148.649 498.62L152.447 500.775" stroke="#4D2161" stroke-width="0.538403" stroke-miterlimit="10" stroke-linecap="round" stroke-linejoin="round"/>
<path opacity="0.5" d="M149.87 496.331L153.668 498.351" stroke="#4D2161" stroke-width="0.538403" stroke-miterlimit="10" stroke-linecap="round" stroke-linejoin="round"/>
</g>
<g opacity="0.5">
<path opacity="0.5" d="M162.078 493.637L158.687 496.33" stroke="#4D2161" stroke-width="0.538403" stroke-miterlimit="10" stroke-linecap="round" stroke-linejoin="round"/>
<path opacity="0.5" d="M163.84 495.657L160.449 498.351" stroke="#4D2161" stroke-width="0.538403" stroke-miterlimit="10" stroke-linecap="round" stroke-linejoin="round"/>
<path opacity="0.5" d="M165.604 497.812L162.078 500.371" stroke="#4D2161" stroke-width="0.538403" stroke-miterlimit="10" stroke-linecap="round" stroke-linejoin="round"/>
<path opacity="0.5" d="M167.232 499.833L163.84 502.526" stroke="#4D2161" stroke-width="0.538403" stroke-miterlimit="10" stroke-linecap="round" stroke-linejoin="round"/>
<path opacity="0.5" d="M168.996 501.988L165.469 504.547" stroke="#4D2161" stroke-width="0.538403" stroke-miterlimit="10" stroke-linecap="round" stroke-linejoin="round"/>
<path opacity="0.5" d="M170.758 504.008L167.232 506.702" stroke="#4D2161" stroke-width="0.538403" stroke-miterlimit="10" stroke-linecap="round" stroke-linejoin="round"/>
</g>
<g opacity="0.5">
<path opacity="0.5" d="M168.725 529.329L172.658 531.215" stroke="#4D2161" stroke-width="0.538403" stroke-miterlimit="10" stroke-linecap="round" stroke-linejoin="round"/>
<path opacity="0.5" d="M169.81 526.904L173.743 528.79" stroke="#4D2161" stroke-width="0.538403" stroke-miterlimit="10" stroke-linecap="round" stroke-linejoin="round"/>
<path opacity="0.5" d="M170.895 524.48L174.829 526.366" stroke="#4D2161" stroke-width="0.538403" stroke-miterlimit="10" stroke-linecap="round" stroke-linejoin="round"/>
<path opacity="0.5" d="M172.116 522.056L176.05 523.942" stroke="#4D2161" stroke-width="0.538403" stroke-miterlimit="10" stroke-linecap="round" stroke-linejoin="round"/>
<path opacity="0.5" d="M173.201 519.497L177.135 521.517" stroke="#4D2161" stroke-width="0.538403" stroke-miterlimit="10" stroke-linecap="round" stroke-linejoin="round"/>
<path opacity="0.5" d="M174.286 517.073L178.22 519.093" stroke="#4D2161" stroke-width="0.538403" stroke-miterlimit="10" stroke-linecap="round" stroke-linejoin="round"/>
</g>
<g opacity="0.5">
<path opacity="0.5" d="M297.59 387.101L301.388 388.986" stroke="#4D2161" stroke-width="0.538403" stroke-miterlimit="10" stroke-linecap="round" stroke-linejoin="round"/>
<path opacity="0.5" d="M298.675 384.676L302.609 386.561" stroke="#4D2161" stroke-width="0.538403" stroke-miterlimit="10" stroke-linecap="round" stroke-linejoin="round"/>
<path opacity="0.5" d="M299.761 382.117L303.695 384.137" stroke="#4D2161" stroke-width="0.538403" stroke-miterlimit="10" stroke-linecap="round" stroke-linejoin="round"/>
<path opacity="0.5" d="M300.981 379.693L304.779 381.713" stroke="#4D2161" stroke-width="0.538403" stroke-miterlimit="10" stroke-linecap="round" stroke-linejoin="round"/>
<path opacity="0.5" d="M302.066 377.268L306 379.288" stroke="#4D2161" stroke-width="0.538403" stroke-miterlimit="10" stroke-linecap="round" stroke-linejoin="round"/>
<path opacity="0.5" d="M303.152 374.844L307.086 376.73" stroke="#4D2161" stroke-width="0.538403" stroke-miterlimit="10" stroke-linecap="round" stroke-linejoin="round"/>
</g>
<g opacity="0.5">
<path opacity="0.5" d="M283.347 245.95L287.28 247.97" stroke="#4D2161" stroke-width="0.538403" stroke-miterlimit="10" stroke-linecap="round" stroke-linejoin="round"/>
<path opacity="0.5" d="M284.432 243.526L288.366 245.546" stroke="#4D2161" stroke-width="0.538403" stroke-miterlimit="10" stroke-linecap="round" stroke-linejoin="round"/>
<path opacity="0.5" d="M285.653 241.101L289.587 242.987" stroke="#4D2161" stroke-width="0.538403" stroke-miterlimit="10" stroke-linecap="round" stroke-linejoin="round"/>
<path opacity="0.5" d="M286.738 238.677L290.672 240.563" stroke="#4D2161" stroke-width="0.538403" stroke-miterlimit="10" stroke-linecap="round" stroke-linejoin="round"/>
<path opacity="0.5" d="M287.823 236.252L291.757 238.138" stroke="#4D2161" stroke-width="0.538403" stroke-miterlimit="10" stroke-linecap="round" stroke-linejoin="round"/>
<path opacity="0.5" d="M289.044 233.828L292.978 235.714" stroke="#4D2161" stroke-width="0.538403" stroke-miterlimit="10" stroke-linecap="round" stroke-linejoin="round"/>
</g>
<path opacity="0.5" d="M-1.37747 25.0654L53.2886 75.1685L47.4557 81.4987" stroke="#4D2161" stroke-width="0.538403" stroke-miterlimit="10" stroke-linecap="round" stroke-linejoin="round" stroke-dasharray="2.15 2.15"/>
<path opacity="0.5" d="M248.892 370.265L289.044 363.8L309.256 369.322L394.849 413.903" stroke="#4D2161" stroke-width="0.538403" stroke-miterlimit="10" stroke-linecap="round" stroke-linejoin="round" stroke-dasharray="2.15 2.15"/>
<path opacity="0.5" d="M284.025 454.983C284.025 454.848 284.568 453.77 285.382 452.424C288.501 447.305 295.284 445.42 300.574 448.383L357.41 480.169C362.836 483.267 364.735 490.001 361.616 495.388L359.038 500.102" stroke="#4D2161" stroke-width="0.538403" stroke-miterlimit="10" stroke-linecap="round" stroke-linejoin="round" stroke-dasharray="2.15 2.15"/>
</g>
<path opacity="0.5" d="M380.606 471.279C376.401 478.957 366.635 481.65 358.903 477.475L306.543 448.652C298.811 444.477 296.098 434.78 300.303 427.103C304.508 419.425 314.275 416.732 322.007 420.907L374.367 449.73C382.099 454.04 384.812 463.602 380.606 471.279Z" stroke="#4D2161" stroke-width="0.573255" stroke-miterlimit="10" stroke-linecap="round" stroke-linejoin="round" stroke-dasharray="2.29 2.29"/>
</g>
<path d="M211.996 107.224C211.182 108.032 211.182 109.378 212.132 110.187L246.858 142.781L251.741 181.301L241.839 225.343L207.113 189.247L215.387 181.166C216.201 180.358 216.201 179.011 215.387 178.203C214.573 177.395 213.217 177.395 212.403 178.203L189.886 200.157L140.917 149.111C140.103 148.303 138.746 148.303 137.932 148.976C137.119 149.784 137.119 151.131 137.797 151.939L187.308 203.524L183.51 211.605L144.85 245.815L111.617 206.756C111.481 206.622 111.481 206.487 111.345 206.218C111.21 206.083 111.074 205.948 110.803 205.813L86.3863 177.125C85.9793 176.721 85.4368 176.452 84.8942 176.317C84.3516 176.317 83.809 176.452 83.402 176.856L40.9443 213.221C37.96 215.78 37.5531 220.09 39.9948 223.053L56.2725 243.525C58.7141 246.623 63.0549 247.162 66.3104 244.738L109.311 210.393L141.595 248.509L45.1494 333.765L34.1619 320.162L65.3609 293.629C70.1086 289.588 70.7868 282.584 66.853 277.601L35.5184 238.811C35.1114 238.407 34.7045 238.138 34.1619 238.003L15.0356 235.714C13.9504 235.579 12.8652 236.387 12.7295 237.599C12.5939 238.811 13.4078 239.754 14.6286 239.889L32.9411 242.044L42.1651 253.358L6.62539 284.335C4.45503 286.221 4.18373 289.588 5.94716 291.878L42.4364 336.863L-1.92041 376.056C-2.7343 376.864 -2.86995 378.211 -2.05607 379.019C-1.64912 379.423 -1.10653 379.693 -0.428291 379.693C0.1143 379.693 0.521243 379.558 0.928187 379.154L76.7553 312.08L185.545 351.139L182.561 365.685C182.289 366.763 183.103 367.975 184.188 368.11C184.324 368.11 184.46 368.11 184.595 368.11C185.545 368.11 186.494 367.436 186.63 366.494L201.958 292.955C202.229 291.878 201.416 290.665 200.33 290.531C199.245 290.261 198.024 291.07 197.889 292.147L186.359 346.964L80.2821 308.848L91.4052 299.016C93.033 301.44 96.9668 306.02 103.749 306.02C104.02 306.02 104.156 306.02 104.427 306.02C104.834 306.02 105.377 305.885 105.648 305.481L113.109 299.42C114.058 298.747 114.194 297.4 113.38 296.457C112.702 295.514 111.345 295.379 110.396 296.188L103.478 301.844C98.1876 301.71 95.339 297.669 94.5251 296.322L163.977 234.906L188.258 262.381C190.292 264.671 193.277 265.883 196.261 265.883C198.703 265.883 201.144 265.075 203.179 263.324L212.403 255.378C214.573 253.492 215.93 250.933 216.066 248.105C216.201 245.276 215.252 242.448 213.353 240.428L187.986 212.817L191.785 204.601L204.264 192.48L240.889 230.596L232.208 269.385C231.936 270.463 232.615 271.675 233.835 271.944C233.971 271.944 234.107 271.944 234.242 271.944C235.192 271.944 236.141 271.271 236.277 270.328L255.946 182.243C255.946 181.974 255.946 181.705 255.946 181.57L250.927 141.972C250.927 141.434 250.656 141.03 250.249 140.76L214.845 107.628C214.166 106.281 212.81 106.415 211.996 107.224ZM63.8688 241.775C62.5123 242.717 60.7489 242.448 59.7993 241.236L43.5216 220.764C42.5721 219.551 42.7077 217.666 43.9285 216.723L84.7585 181.705L106.733 207.564L63.8688 241.775ZM9.06705 289.184C8.66011 288.645 8.66011 287.972 9.2027 287.433L44.6068 256.59L63.8688 280.564C66.3104 283.662 65.9035 288.106 62.9192 290.665L31.7202 317.064L9.06705 289.184ZM210.233 243.121C211.454 244.334 211.996 246.085 211.86 247.701C211.725 249.452 210.911 250.933 209.69 252.145L200.466 260.092C197.889 262.381 193.819 262.112 191.513 259.418L167.232 231.942L185.409 215.915L210.233 243.121Z" fill="white"/>
<path d="M400.953 326.627L379.385 326.088L379.792 296.727L394.578 302.787C395.663 303.192 396.884 302.653 397.426 301.71C397.833 300.632 397.291 299.42 396.341 299.016L379.385 292.013C379.114 291.878 378.978 291.878 378.707 291.878C378.707 291.878 378.707 291.878 378.571 291.878H377.079L329.738 290.262C328.924 290.262 328.246 290.666 327.839 291.339L311.968 320.027C311.833 320.297 311.697 320.566 311.697 320.97L309.934 357.335L300.303 358.278L257.574 336.728L331.23 181.84L359.309 195.039L375.451 212.279L338.691 242.044C337.741 242.718 337.606 244.064 338.42 245.007C338.827 245.546 339.505 245.815 340.047 245.815C340.454 245.815 340.997 245.681 341.404 245.277L351.984 236.791L376.944 257.533C377.351 257.802 377.757 258.072 378.3 258.072C378.843 258.072 379.521 257.802 379.928 257.264C380.742 256.321 380.606 255.109 379.657 254.301L355.24 233.963L364.328 226.555L391.594 255.513C392 255.917 392.543 256.186 393.086 256.186C393.628 256.186 394.171 256.052 394.578 255.647C395.392 254.839 395.527 253.492 394.713 252.684L367.584 223.996L394.985 201.773C395.934 201.1 396.07 199.753 395.256 198.81C394.578 197.867 393.221 197.733 392.272 198.541L378.571 209.585L362.022 191.941C361.887 191.806 361.615 191.537 361.344 191.537L332.858 178.203L334.486 174.701C337.199 168.91 335.707 162.041 330.823 157.866L328.382 155.711L359.309 104.665C359.852 103.722 359.581 102.375 358.631 101.836C357.682 101.298 356.325 101.567 355.783 102.51L325.262 152.882L285.924 119.48C284.432 118.268 282.261 118.403 280.905 119.884C279.684 121.366 279.82 123.521 281.312 124.868L326.347 163.118C328.789 165.273 329.603 168.64 328.11 171.604L250.927 333.765L249.299 337.267L164.519 515.322L150.819 501.314C150.547 501.045 150.276 500.91 150.005 500.641L122.468 485.421C123.011 485.287 123.418 484.883 123.689 484.344L128.301 475.32C128.437 475.185 128.437 475.05 128.437 474.916L148.377 395.182C148.513 394.643 148.377 394.104 148.106 393.566C147.834 393.027 147.292 392.758 146.749 392.623L82.5879 377.807C81.5027 377.538 80.2819 378.211 80.0106 379.424C79.7393 380.501 80.4175 381.713 81.6383 381.983L143.765 396.259L124.367 473.704L119.891 482.593C119.62 483.132 119.62 483.536 119.755 484.074L70.1083 456.733L89.099 420.099C90.5911 417.405 90.7267 414.173 89.7772 411.209C88.692 408.246 86.6573 405.957 83.8087 404.61L64.6824 395.99C63.5972 395.451 62.3764 395.99 61.8338 397.067C61.2912 398.145 61.8338 399.357 62.9189 399.896L82.0453 408.516C83.8087 409.324 85.1652 410.805 85.8434 412.556C86.5217 414.442 86.386 416.328 85.4365 418.078L66.4458 454.713L-1.24246 417.27C-3.00588 416.328 -5.0406 417.001 -5.99013 418.617C-6.93967 420.368 -6.26143 422.388 -4.63365 423.331L146.071 506.567L161.128 521.921L161.264 522.056L135.897 575.391C135.084 577.142 135.762 579.297 137.525 580.105C138.068 580.375 138.475 580.509 139.017 580.509C140.374 580.509 141.595 579.701 142.273 578.489L165.197 530.406L260.829 583.068C261.372 583.338 261.914 583.473 262.592 583.473C263.813 583.473 265.034 582.799 265.712 581.722C266.662 579.971 265.984 577.95 264.356 577.008L168.317 524.076L233.835 386.293L259.88 399.357L222.576 463.063C222.034 464.006 222.305 465.353 223.39 465.892C223.662 466.027 224.069 466.161 224.475 466.161C225.154 466.161 225.968 465.757 226.375 465.084L243.195 436.396L270.053 451.75L251.469 485.287C249.299 489.193 250.655 494.041 254.454 496.331L301.116 525.019C302.473 525.827 303.965 526.231 305.593 526.231C306.271 526.231 307.085 526.096 307.763 525.962C309.934 525.423 311.833 523.807 312.918 521.921L331.909 486.903L353.883 499.429C356.054 500.641 357.546 502.661 358.089 504.951C358.631 507.375 358.36 509.799 357.003 511.82L335.707 545.626C335.571 545.761 335.571 545.895 335.435 546.03L325.533 574.449C325.126 575.526 325.804 576.738 326.89 577.142C327.161 577.277 327.296 577.277 327.568 577.277C328.382 577.277 329.331 576.738 329.602 575.795L339.369 547.646L360.53 514.109C362.429 511.012 362.972 507.51 362.158 504.008C361.344 500.506 359.038 497.678 355.918 495.792L275.75 449.999L289.315 425.486C289.858 424.409 289.451 423.197 288.501 422.658C287.416 422.119 286.195 422.523 285.653 423.466L272.088 447.844L245.23 432.49L264.763 399.222C265.034 398.684 265.17 398.145 264.898 397.606C264.763 397.067 264.356 396.529 263.813 396.259L235.734 382.252L255.539 340.499L298.675 362.184C298.946 362.319 299.353 362.453 299.624 362.453C299.76 362.453 299.76 362.453 299.896 362.453L311.968 361.241L392 364.069H392.136C393.221 364.069 394.171 363.127 394.306 362.049C394.306 360.837 393.493 359.894 392.272 359.894L314.139 357.066L315.766 321.509L330.823 294.437L375.587 295.918L375.18 325.953L361.208 325.684C360.123 325.684 359.038 326.627 359.038 327.704C359.038 328.916 359.988 329.859 361.073 329.859L376.265 330.263H377.893L400.682 330.802C401.767 330.802 402.717 329.859 402.852 328.782C402.988 327.57 402.038 326.627 400.953 326.627ZM273.851 453.635L328.246 484.748L309.255 519.901C308.713 520.978 307.763 521.652 306.678 521.921C305.593 522.191 304.372 522.056 303.422 521.382L256.76 492.694C254.861 491.482 254.182 489.192 255.268 487.172L273.851 453.635Z" fill="white"/>
<path d="M278.192 119.076C278.599 119.48 279.142 119.615 279.684 119.615C280.227 119.615 280.769 119.345 281.176 118.941C281.99 118.133 281.99 116.786 281.041 115.978L227.595 65.3364L244.687 47.1538L273.037 70.0504C273.851 70.7238 275.072 70.7238 275.886 69.9157L348.186 -4.43083C349 -5.23894 349 -6.5858 348.186 -7.39391C347.372 -8.20203 346.016 -8.20203 345.202 -7.39391L274.394 65.7404L245.908 42.8439C245.094 42.1704 243.737 42.1704 243.059 42.9785L223.255 64.1242C222.441 64.9323 222.441 66.2792 223.39 67.0873L278.192 119.076Z" fill="white"/>
<path d="M181.746 3.11173L63.4614 130.12C62.6475 130.928 62.7832 132.275 63.597 133.083C64.004 133.488 64.5466 133.622 65.0892 133.622C65.6318 133.622 66.1744 133.353 66.5813 132.949L184.866 5.94013L207.519 26.143C211.046 29.3754 211.453 34.7629 208.469 38.5341L200.601 47.9621C199.923 48.9049 199.923 50.1171 200.873 50.9252C201.28 51.1945 201.686 51.4639 202.229 51.4639C202.772 51.4639 203.45 51.1945 203.857 50.6558L211.724 41.2278C216.201 35.8404 215.658 27.7592 210.368 23.0452L176.456 -7.25907C175.642 -8.06718 174.286 -7.9325 173.472 -7.12438C172.658 -6.31627 172.793 -4.96941 173.607 -4.1613L181.746 3.11173Z" fill="white"/>
<path d="M41.4867 60.6225C42.0293 60.6225 42.5719 60.3532 43.1145 59.9491L102.664 -4.29598C103.478 -5.1041 103.342 -6.45096 102.528 -7.25907C101.714 -8.06718 100.358 -7.9325 99.544 -7.12438L39.9946 57.1207C39.1807 57.9288 39.3164 59.2757 40.1302 60.0838C40.5372 60.4879 40.9441 60.6225 41.4867 60.6225Z" fill="white"/>
<path d="M14.7642 124.059L-2.46302 135.103C-3.41255 135.777 -3.68385 136.989 -3.14126 138.066C-2.73431 138.74 -2.05608 139.009 -1.37784 139.009C-0.970894 139.009 -0.563952 138.874 -0.292656 138.74L18.5624 126.618L34.7045 123.924L55.1873 157.057C56.9507 160.02 56.0012 164.061 53.0169 165.946L-0.835244 199.214C-1.78478 199.887 -2.19172 201.099 -1.51348 202.177C-1.10654 202.85 -0.428302 203.12 0.249937 203.12C0.65688 203.12 1.06382 202.985 1.33512 202.85L55.1873 169.583C60.2063 166.485 61.6984 160.02 58.7141 155.037L38.6383 121.635L63.4618 97.2566C64.2757 96.4485 64.2757 95.1016 63.4618 94.2935L48.9475 79.3434C48.1336 78.5353 46.7771 78.5353 45.9632 79.3434C45.1493 80.1515 45.1493 81.4984 45.9632 82.3065L59.1211 95.9097L35.654 118.941C35.3827 118.941 34.9758 119.076 34.7045 119.21C34.4332 119.345 34.1619 119.614 34.0262 119.884L18.9693 122.308L-2.32737 99.4116C-3.14126 98.6035 -4.49773 98.4688 -5.31162 99.2769C-6.12551 100.085 -6.26116 101.432 -5.44727 102.24L14.7642 124.059Z" fill="white"/>
<rect y="460" width="390" height="100" fill="url(#paint0_linear_19_271)"/>
<path d="M274.53 68.5688L282.262 114.362" stroke="white" stroke-width="3.23042" stroke-miterlimit="10" stroke-linecap="round" stroke-linejoin="round"/>
<path d="M77.1401 255.641L69.0234 262.167L75.9379 270.645L84.0546 264.118L77.1401 255.641Z" fill="#515BA2"/>
<path opacity="0.1" d="M96.9738 258.025L89.2122 264.964L96.564 273.071L104.326 266.132L96.9738 258.025Z" fill="#515BA2"/>
<path d="M118.143 225.838L108.366 234.58L113.449 240.185L123.226 231.443L118.143 225.838Z" fill="#FFA690"/>
<path d="M313.758 359.063C312.061 359.473 311.748 361.751 313.271 362.604L386.74 403.748C389.407 405.241 392.695 403.314 392.695 400.258V366.072C392.695 363.926 391.002 362.163 388.859 362.075L314.287 359.011C314.109 359.004 313.931 359.021 313.758 359.063V359.063Z" fill="#8BE2C2"/>
<path d="M346.83 250.798L350.763 245.815L379.114 263.728C379.114 263.728 381.149 259.149 381.691 259.283C382.234 259.418 400.139 269.519 400.139 269.519L397.291 280.564L346.83 250.798Z" fill="#515BA2"/>
<path opacity="0.4" d="M366.092 191.671L370.704 186.957L378.029 194.23L373.281 198.944L366.092 191.671Z" fill="#FFA690"/>
<path opacity="0.1" d="M339.599 297.299C338.497 297.28 337.588 298.156 337.565 299.258L337.238 315.141C337.216 316.215 338.046 317.114 339.118 317.179L348.675 317.754C349.761 317.819 350.595 318.74 350.554 319.826L350.024 333.702C349.983 334.786 349.085 335.639 348.001 335.626L319.443 335.27C318.373 335.256 317.482 336.087 317.421 337.155L316.56 352.216C316.497 353.328 317.354 354.278 318.466 354.328L394.08 357.764C395.328 357.821 396.322 356.733 396.153 355.496L393.859 338.684C393.726 337.711 392.907 336.979 391.926 336.955L362.962 336.239C361.848 336.211 360.971 335.278 361.013 334.165L361.541 320.004C361.582 318.901 362.51 318.039 363.614 318.08L374.069 318.468C375.197 318.51 376.136 317.611 376.143 316.483L376.253 299.916C376.26 298.82 375.383 297.922 374.287 297.903L339.599 297.299Z" fill="#FD9380"/>
<path d="M264.085 384.002L270.46 387.908L274.801 381.039L268.561 377.537L264.085 384.002Z" fill="#E2E0E1"/>
<path d="M292.028 369.456L286.602 379.288L292.028 382.521L297.319 372.689L292.028 369.456Z" fill="#E2E0E1"/>
<path d="M72.4146 357.2L81.91 368.244L87.4716 363.126L78.1119 352.621L72.4146 357.2Z" fill="#45B289"/>
<path d="M214.031 257.397L218.1 260.63L226.782 252.548L222.305 248.643L214.031 257.397Z" fill="#E2E0E1"/>
<path opacity="0.1" d="M322.278 237.868L352.121 211.874L356.733 215.914L345.474 225.342L347.373 229.652L332.588 242.313L322.278 237.868Z" fill="#39A784"/>
<path d="M137.213 107.108C136.445 107.108 135.841 106.888 135.401 106.448C134.961 106.009 134.741 105.365 134.741 104.519V101.195H135.577V104.486C135.577 105.137 135.719 105.613 136.003 105.914C136.292 106.214 136.698 106.365 137.222 106.365C137.751 106.365 138.157 106.214 138.441 105.914C138.731 105.613 138.875 105.137 138.875 104.486V101.195H139.685V104.519C139.685 105.365 139.465 106.009 139.026 106.448C138.591 106.888 137.987 107.108 137.213 107.108ZM141.397 107.041V101.195H142.082L145.949 105.997H145.59V101.195H146.425V107.041H145.74L141.873 102.239H142.233V107.041H141.397ZM148.175 107.041V101.195H149.01V107.041H148.175ZM153.399 107.108C152.953 107.108 152.539 107.033 152.155 106.883C151.776 106.732 151.447 106.523 151.169 106.256C150.891 105.983 150.674 105.666 150.518 105.304C150.362 104.942 150.284 104.547 150.284 104.118C150.284 103.69 150.362 103.294 150.518 102.933C150.674 102.571 150.891 102.256 151.169 101.989C151.447 101.716 151.776 101.504 152.155 101.354C152.533 101.204 152.948 101.129 153.399 101.129C153.844 101.129 154.253 101.204 154.626 101.354C155.005 101.499 155.334 101.708 155.612 101.98C155.896 102.248 156.113 102.562 156.263 102.924C156.419 103.286 156.497 103.684 156.497 104.118C156.497 104.553 156.419 104.951 156.263 105.313C156.113 105.674 155.896 105.992 155.612 106.265C155.334 106.532 155.005 106.741 154.626 106.891C154.253 107.036 153.844 107.108 153.399 107.108ZM153.399 106.365C153.722 106.365 154.02 106.309 154.292 106.198C154.571 106.086 154.81 105.931 155.011 105.73C155.217 105.524 155.375 105.285 155.487 105.012C155.604 104.739 155.662 104.441 155.662 104.118C155.662 103.795 155.604 103.498 155.487 103.225C155.375 102.952 155.217 102.715 155.011 102.515C154.81 102.309 154.571 102.15 154.292 102.039C154.02 101.928 153.722 101.872 153.399 101.872C153.07 101.872 152.767 101.928 152.489 102.039C152.216 102.15 151.976 102.309 151.77 102.515C151.564 102.715 151.403 102.952 151.286 103.225C151.175 103.498 151.119 103.795 151.119 104.118C151.119 104.441 151.175 104.739 151.286 105.012C151.403 105.285 151.564 105.524 151.77 105.73C151.976 105.931 152.216 106.086 152.489 106.198C152.767 106.309 153.07 106.365 153.399 106.365ZM157.774 107.041V101.195H158.458L162.325 105.997H161.966V101.195H162.801V107.041H162.116L158.25 102.239H158.609V107.041H157.774Z" fill="#606161"/>
<path d="M238.925 217.151C238.877 217.373 238.801 217.579 238.697 217.769C238.593 217.954 238.485 218.095 238.373 218.191L238.032 217.908C238.134 217.809 238.231 217.682 238.321 217.525C238.411 217.368 238.475 217.202 238.513 217.026C238.561 216.801 238.564 216.632 238.521 216.521C238.479 216.406 238.401 216.336 238.286 216.312C238.202 216.294 238.129 216.311 238.069 216.361C238.009 216.412 237.956 216.485 237.91 216.581C237.866 216.674 237.822 216.779 237.779 216.897C237.733 217.014 237.683 217.13 237.63 217.246C237.573 217.361 237.509 217.463 237.436 217.554C237.361 217.643 237.271 217.709 237.167 217.75C237.059 217.791 236.928 217.795 236.773 217.762C236.611 217.727 236.479 217.652 236.377 217.535C236.275 217.418 236.21 217.27 236.182 217.092C236.151 216.909 236.16 216.703 236.209 216.474C236.247 216.298 236.307 216.126 236.389 215.957C236.469 215.783 236.56 215.648 236.662 215.55L237.002 215.838C236.895 215.943 236.812 216.057 236.753 216.182C236.695 216.307 236.651 216.435 236.623 216.567C236.577 216.779 236.578 216.945 236.627 217.065C236.672 217.183 236.748 217.254 236.856 217.277C236.947 217.296 237.024 217.281 237.088 217.231C237.149 217.177 237.204 217.104 237.252 217.012C237.3 216.917 237.348 216.811 237.394 216.694C237.437 216.576 237.487 216.46 237.544 216.345C237.597 216.229 237.659 216.128 237.731 216.041C237.803 215.95 237.891 215.885 237.995 215.843C238.1 215.799 238.229 215.792 238.38 215.825C238.542 215.859 238.672 215.936 238.77 216.055C238.867 216.175 238.931 216.328 238.962 216.514C238.989 216.699 238.977 216.912 238.925 217.151ZM239.503 214.467C239.445 214.736 239.328 214.93 239.151 215.047C238.974 215.165 238.75 215.195 238.481 215.138L236.022 214.616L236.127 214.13L238.565 214.648C238.71 214.679 238.829 214.667 238.922 214.613C239.015 214.555 239.077 214.459 239.106 214.324C239.138 214.173 239.123 214.037 239.061 213.918L239.443 213.841C239.491 213.928 239.519 214.028 239.526 214.139C239.535 214.246 239.527 214.356 239.503 214.467ZM236.911 215.28L236.511 215.195L236.879 213.486L237.279 213.571L236.911 215.28ZM239.726 213.287L237.045 212.718L237.145 212.253L237.873 212.407L237.682 212.414C237.512 212.301 237.397 212.146 237.337 211.95C237.277 211.754 237.275 211.528 237.33 211.272L237.8 211.372C237.793 211.391 237.787 211.411 237.782 211.431C237.779 211.448 237.775 211.465 237.771 211.482C237.715 211.741 237.749 211.963 237.871 212.148C237.994 212.333 238.202 212.456 238.495 212.518L239.83 212.802L239.726 213.287ZM240.447 210.087C240.385 210.373 240.272 210.613 240.107 210.807C239.942 210.998 239.744 211.132 239.512 211.21C239.281 211.284 239.032 211.293 238.766 211.236C238.5 211.179 238.276 211.072 238.095 210.914C237.914 210.752 237.789 210.558 237.718 210.331C237.644 210.101 237.635 209.857 237.69 209.601C237.746 209.342 237.853 209.125 238.01 208.95C238.167 208.776 238.363 208.655 238.596 208.588C238.826 208.518 239.08 208.511 239.356 208.57C239.376 208.574 239.4 208.581 239.426 208.59C239.453 208.596 239.478 208.603 239.501 208.611L239.009 210.891L238.66 210.817L239.097 208.79L239.176 209.013C239.005 208.973 238.844 208.976 238.693 209.021C238.542 209.067 238.415 209.147 238.313 209.263C238.208 209.375 238.137 209.516 238.1 209.688C238.063 209.857 238.07 210.015 238.119 210.163C238.165 210.31 238.249 210.435 238.371 210.539C238.49 210.642 238.637 210.712 238.813 210.749L238.894 210.766C239.072 210.804 239.241 210.798 239.4 210.747C239.557 210.692 239.69 210.599 239.799 210.467C239.909 210.335 239.984 210.173 240.025 209.981C240.06 209.823 240.063 209.674 240.037 209.534C240.011 209.391 239.955 209.26 239.868 209.139L240.24 208.938C240.355 209.089 240.43 209.264 240.465 209.461C240.501 209.656 240.495 209.864 240.447 210.087ZM241.114 206.991C241.052 207.278 240.939 207.518 240.774 207.712C240.609 207.903 240.411 208.037 240.179 208.114C239.948 208.189 239.699 208.197 239.433 208.141C239.166 208.084 238.943 207.977 238.762 207.819C238.581 207.657 238.456 207.463 238.385 207.236C238.311 207.006 238.302 206.762 238.357 206.506C238.413 206.247 238.519 206.03 238.677 205.855C238.834 205.681 239.03 205.56 239.263 205.493C239.493 205.422 239.747 205.416 240.023 205.475C240.043 205.479 240.067 205.486 240.093 205.495C240.12 205.501 240.145 205.508 240.168 205.516L239.676 207.796L239.327 207.722L239.764 205.695L239.843 205.918C239.672 205.878 239.511 205.881 239.36 205.926C239.209 205.972 239.082 206.052 238.98 206.168C238.875 206.279 238.804 206.421 238.767 206.593C238.73 206.762 238.737 206.92 238.786 207.068C238.832 207.215 238.916 207.34 239.038 207.444C239.157 207.547 239.304 207.617 239.48 207.654L239.56 207.671C239.739 207.709 239.908 207.703 240.067 207.652C240.224 207.597 240.357 207.504 240.466 207.372C240.576 207.24 240.651 207.078 240.692 206.886C240.727 206.727 240.73 206.578 240.704 206.439C240.678 206.296 240.622 206.164 240.535 206.044L240.907 205.842C241.022 205.994 241.097 206.168 241.132 206.366C241.168 206.56 241.162 206.769 241.114 206.991ZM241.722 204.169C241.664 204.439 241.546 204.632 241.37 204.75C241.193 204.867 240.969 204.897 240.699 204.84L238.241 204.318L238.346 203.832L240.784 204.35C240.929 204.381 241.048 204.369 241.14 204.315C241.234 204.257 241.295 204.161 241.324 204.026C241.357 203.875 241.342 203.739 241.28 203.62L241.661 203.543C241.709 203.631 241.737 203.73 241.745 203.841C241.754 203.948 241.746 204.058 241.722 204.169ZM239.129 204.982L238.73 204.897L239.098 203.189L239.498 203.274L239.129 204.982ZM239.839 199.626C239.886 199.407 239.97 199.224 240.09 199.077C240.21 198.926 240.367 198.822 240.559 198.764C240.751 198.707 240.979 198.706 241.242 198.761L242.785 199.089L242.68 199.574L241.193 199.259C240.933 199.203 240.724 199.226 240.565 199.326C240.407 199.423 240.303 199.586 240.253 199.815C240.216 199.987 240.218 200.144 240.258 200.286C240.297 200.429 240.375 200.549 240.492 200.648C240.609 200.743 240.765 200.812 240.961 200.853L242.342 201.147L242.237 201.632L239.556 201.062L239.656 200.597L240.38 200.751L240.171 200.786C240.015 200.661 239.907 200.497 239.848 200.295C239.79 200.092 239.787 199.869 239.839 199.626ZM243.337 196.528L242.77 196.408L242.658 196.41L241.692 196.205C241.487 196.161 241.315 196.188 241.178 196.286C241.038 196.38 240.942 196.546 240.89 196.785C240.856 196.944 240.85 197.104 240.871 197.268C240.889 197.43 240.93 197.573 240.996 197.696L240.588 197.821C240.506 197.659 240.458 197.476 240.442 197.272C240.423 197.063 240.437 196.853 240.482 196.641C240.562 196.273 240.712 196.009 240.933 195.848C241.155 195.687 241.45 195.646 241.817 195.724L243.436 196.068L243.337 196.528ZM243.178 197.414C243.135 197.613 243.063 197.781 242.963 197.918C242.864 198.052 242.746 198.147 242.611 198.203C242.472 198.258 242.327 198.269 242.175 198.237C242.03 198.206 241.906 198.145 241.802 198.052C241.699 197.956 241.629 197.823 241.592 197.653C241.555 197.48 241.566 197.26 241.623 196.994L241.806 196.145L242.155 196.219L241.976 197.048C241.924 197.29 241.929 197.462 241.992 197.564C242.055 197.665 242.144 197.728 242.258 197.753C242.39 197.78 242.507 197.751 242.611 197.664C242.711 197.576 242.781 197.439 242.821 197.254C242.86 197.072 242.853 196.905 242.802 196.753C242.75 196.597 242.654 196.473 242.512 196.379L242.866 196.354C243.011 196.452 243.113 196.591 243.173 196.773C243.229 196.954 243.231 197.168 243.178 197.414ZM241.645 191.243C241.692 191.028 241.775 190.846 241.895 190.699C242.015 190.552 242.17 190.451 242.362 190.397C242.554 190.339 242.782 190.338 243.045 190.394L244.588 190.721L244.483 191.207L242.996 190.891C242.736 190.836 242.528 190.855 242.37 190.948C242.212 191.041 242.11 191.198 242.063 191.417C242.028 191.578 242.031 191.727 242.072 191.863C242.114 191.998 242.193 192.114 242.31 192.209C242.428 192.301 242.584 192.368 242.78 192.41L244.161 192.703L244.056 193.188L242.569 192.872C242.309 192.817 242.101 192.836 241.943 192.93C241.786 193.02 241.684 193.176 241.636 193.398C241.602 193.557 241.605 193.704 241.647 193.839C241.688 193.975 241.767 194.091 241.884 194.186C242.001 194.281 242.157 194.35 242.353 194.391L243.734 194.684L243.629 195.17L240.948 194.6L241.049 194.135L241.762 194.287L241.563 194.324C241.406 194.202 241.298 194.044 241.238 193.848C241.177 193.652 241.173 193.437 241.223 193.205C241.278 192.949 241.389 192.742 241.558 192.583C241.722 192.425 241.939 192.344 242.208 192.341L242.084 192.521C241.896 192.396 241.761 192.22 241.68 191.991C241.599 191.762 241.587 191.513 241.645 191.243ZM245.068 188.642C245.006 188.928 244.892 189.168 244.727 189.362C244.563 189.553 244.364 189.687 244.133 189.765C243.901 189.839 243.653 189.848 243.386 189.791C243.12 189.735 242.896 189.627 242.715 189.469C242.535 189.307 242.409 189.113 242.338 188.887C242.264 188.656 242.255 188.413 242.31 188.157C242.366 187.897 242.473 187.68 242.63 187.506C242.788 187.331 242.983 187.21 243.216 187.144C243.447 187.073 243.7 187.067 243.977 187.125C243.997 187.13 244.02 187.136 244.046 187.146C244.073 187.151 244.098 187.158 244.121 187.167L243.63 189.447L243.281 189.372L243.718 187.345L243.797 187.568C243.625 187.528 243.464 187.531 243.313 187.577C243.162 187.622 243.036 187.703 242.933 187.818C242.828 187.93 242.757 188.072 242.72 188.244C242.684 188.412 242.69 188.57 242.739 188.718C242.785 188.865 242.869 188.991 242.992 189.094C243.111 189.197 243.258 189.267 243.433 189.304L243.514 189.321C243.693 189.359 243.862 189.353 244.021 189.302C244.177 189.247 244.31 189.154 244.42 189.022C244.529 188.89 244.604 188.728 244.646 188.536C244.68 188.378 244.684 188.229 244.658 188.089C244.632 187.947 244.576 187.815 244.489 187.694L244.86 187.493C244.976 187.644 245.051 187.819 245.086 188.017C245.122 188.211 245.115 188.419 245.068 188.642Z" fill="#818181"/>
<path d="M87.6671 117.414C87.494 117.266 87.349 117.102 87.2322 116.921C87.118 116.742 87.0456 116.581 87.0151 116.437L87.4295 116.274C87.4669 116.41 87.5331 116.554 87.6282 116.708C87.7232 116.862 87.839 116.997 87.9754 117.113C88.1512 117.263 88.2985 117.345 88.4174 117.361C88.539 117.378 88.6381 117.343 88.7148 117.254C88.7712 117.189 88.7915 117.118 88.7759 117.041C88.7602 116.964 88.7209 116.883 88.658 116.798C88.5977 116.715 88.526 116.626 88.4428 116.533C88.3619 116.437 88.2833 116.338 88.2069 116.236C88.1327 116.132 88.0732 116.027 88.0283 115.921C87.9857 115.812 87.9713 115.703 87.9849 115.592C88.0008 115.479 88.0607 115.362 88.1644 115.242C88.2727 115.117 88.4028 115.038 88.5548 115.004C88.7068 114.971 88.8685 114.984 89.0399 115.044C89.2162 115.104 89.3935 115.21 89.5719 115.362C89.7083 115.478 89.8314 115.612 89.9411 115.765C90.0557 115.917 90.1317 116.061 90.169 116.197L89.7506 116.357C89.7103 116.214 89.6491 116.087 89.5671 115.976C89.4851 115.865 89.3929 115.766 89.2906 115.679C89.1253 115.538 88.9783 115.46 88.8497 115.446C88.7232 115.429 88.6239 115.462 88.5518 115.545C88.4909 115.616 88.4671 115.69 88.4805 115.77C88.4988 115.849 88.537 115.931 88.595 116.017C88.6556 116.105 88.7264 116.197 88.8073 116.293C88.8905 116.387 88.9692 116.485 89.0433 116.589C89.1197 116.691 89.179 116.794 89.2213 116.898C89.2662 117.004 89.2818 117.112 89.2681 117.223C89.2571 117.336 89.2008 117.451 89.0993 117.568C88.9911 117.693 88.8607 117.77 88.7084 117.799C88.556 117.828 88.3903 117.811 88.2114 117.749C88.0348 117.684 87.8534 117.573 87.6671 117.414ZM89.7565 119.195C89.5466 119.017 89.4325 118.822 89.414 118.611C89.3956 118.401 89.4765 118.191 89.657 117.983L91.3009 116.082L91.6787 116.404L90.0483 118.289C89.9513 118.401 89.9044 118.511 89.9076 118.618C89.9135 118.727 89.9689 118.826 90.0738 118.916C90.1919 119.016 90.3184 119.067 90.4535 119.069L90.3381 119.44C90.2376 119.44 90.1365 119.417 90.0349 119.372C89.9359 119.328 89.8431 119.269 89.7565 119.195ZM90.2872 116.542L90.5544 116.233L91.8844 117.367L91.6172 117.676L90.2872 116.542ZM90.69 119.951L92.4828 117.878L92.8448 118.186L92.3577 118.749L92.4441 118.578C92.6258 118.484 92.8176 118.457 93.0194 118.498C93.2212 118.539 93.4218 118.644 93.6212 118.814L93.3066 119.178C93.2931 119.162 93.2785 119.147 93.2628 119.134C93.2497 119.123 93.2366 119.111 93.2234 119.1C93.0214 118.928 92.8095 118.852 92.5878 118.871C92.366 118.89 92.157 119.013 91.9608 119.24L91.0678 120.273L90.69 119.951ZM93.1662 122.103C92.9432 121.913 92.786 121.699 92.6944 121.462C92.6054 121.228 92.5825 120.991 92.6256 120.751C92.6714 120.514 92.7833 120.292 92.9615 120.086C93.1396 119.88 93.3421 119.736 93.5688 119.653C93.7982 119.572 94.0299 119.555 94.264 119.6C94.503 119.645 94.7221 119.753 94.9215 119.923C95.1235 120.095 95.2636 120.291 95.3417 120.512C95.4198 120.733 95.4322 120.961 95.3789 121.196C95.3306 121.431 95.2139 121.656 95.029 121.87C95.0155 121.885 94.9984 121.902 94.9777 121.921C94.9597 121.942 94.9415 121.96 94.923 121.976L93.1483 120.463L93.3817 120.193L94.9597 121.539L94.725 121.502C94.8427 121.371 94.9177 121.229 94.9502 121.075C94.9827 120.922 94.9726 120.773 94.9199 120.628C94.8721 120.483 94.7813 120.354 94.6475 120.24C94.5163 120.128 94.3737 120.058 94.2195 120.031C94.0676 120.001 93.9165 120.015 93.7663 120.073C93.6184 120.128 93.4858 120.223 93.3686 120.359L93.3144 120.421C93.1949 120.56 93.1193 120.71 93.0875 120.873C93.0606 121.036 93.079 121.197 93.1425 121.355C93.2061 121.514 93.3127 121.657 93.4622 121.784C93.5855 121.889 93.715 121.963 93.8508 122.007C93.9892 122.052 94.1325 122.066 94.2807 122.047L94.2796 122.467C94.0904 122.496 93.9002 122.479 93.7089 122.416C93.5203 122.355 93.3394 122.25 93.1662 122.103ZM95.5757 124.157C95.3527 123.967 95.1954 123.753 95.1038 123.517C95.0149 123.282 94.9919 123.045 95.0351 122.806C95.0808 122.568 95.1927 122.347 95.3709 122.141C95.5491 121.935 95.7515 121.79 95.9783 121.707C96.2076 121.626 96.4394 121.609 96.6735 121.654C96.9124 121.7 97.1316 121.807 97.3309 121.977C97.5329 122.149 97.673 122.346 97.7511 122.566C97.8292 122.787 97.8416 123.015 97.7884 123.251C97.74 123.486 97.6234 123.71 97.4385 123.924C97.4249 123.94 97.4078 123.957 97.3872 123.975C97.3691 123.996 97.3509 124.015 97.3325 124.031L95.5578 122.518L95.7912 122.248L97.3691 123.593L97.1345 123.556C97.2521 123.425 97.3272 123.283 97.3597 123.13C97.3922 122.976 97.3821 122.827 97.3294 122.683C97.2815 122.538 97.1907 122.408 97.057 122.294C96.9258 122.182 96.7831 122.113 96.6289 122.085C96.477 122.055 96.326 122.069 96.1758 122.127C96.0279 122.182 95.8953 122.278 95.778 122.413L95.7239 122.476C95.6044 122.614 95.5287 122.765 95.497 122.928C95.4701 123.091 95.4884 123.251 95.552 123.41C95.6156 123.568 95.7221 123.711 95.8716 123.838C95.9949 123.944 96.1245 124.018 96.2602 124.061C96.3986 124.107 96.5419 124.12 96.6902 124.101L96.689 124.522C96.4999 124.551 96.3096 124.534 96.1184 124.47C95.9297 124.409 95.7488 124.305 95.5757 124.157ZM97.7726 126.03C97.5628 125.851 97.4486 125.656 97.4301 125.446C97.4117 125.235 97.4927 125.026 97.6731 124.817L99.3171 122.916L99.6948 123.238L98.0644 125.124C97.9674 125.236 97.9205 125.345 97.9237 125.452C97.9296 125.561 97.985 125.661 98.0899 125.75C98.208 125.851 98.3345 125.902 98.4696 125.904L98.3543 126.275C98.2537 126.275 98.1526 126.252 98.051 126.206C97.952 126.163 97.8592 126.104 97.7726 126.03ZM98.3033 123.377L98.5705 123.068L99.9006 124.202L99.6333 124.511L98.3033 123.377ZM102.686 126.543C102.857 126.689 102.978 126.849 103.05 127.023C103.125 127.2 103.142 127.387 103.1 127.582C103.059 127.778 102.95 127.978 102.774 128.181L101.742 129.374L101.364 129.052L102.359 127.902C102.533 127.701 102.614 127.507 102.602 127.321C102.593 127.136 102.499 126.968 102.321 126.816C102.187 126.702 102.047 126.628 101.903 126.595C101.758 126.563 101.614 126.574 101.471 126.628C101.331 126.685 101.195 126.789 101.064 126.941L100.141 128.008L99.7629 127.686L101.556 125.613L101.918 125.922L101.434 126.481L101.504 126.282C101.689 126.205 101.885 126.189 102.092 126.234C102.299 126.279 102.497 126.382 102.686 126.543ZM103.736 131.074L104.115 130.636L104.166 130.537L104.812 129.79C104.95 129.631 105.009 129.468 104.989 129.301C104.973 129.134 104.873 128.971 104.686 128.813C104.563 128.708 104.424 128.625 104.27 128.567C104.118 128.505 103.973 128.473 103.833 128.472L103.919 128.056C104.101 128.062 104.286 128.106 104.473 128.189C104.666 128.272 104.845 128.384 105.011 128.525C105.296 128.769 105.457 129.026 105.492 129.296C105.528 129.566 105.422 129.843 105.177 130.127L104.094 131.379L103.736 131.074ZM103.031 130.513C102.876 130.381 102.762 130.239 102.689 130.086C102.619 129.936 102.592 129.788 102.608 129.643C102.626 129.495 102.686 129.363 102.787 129.246C102.884 129.134 102.999 129.054 103.13 129.008C103.264 128.963 103.415 128.965 103.583 129.013C103.754 129.064 103.943 129.177 104.15 129.354L104.811 129.918L104.578 130.188L103.932 129.637C103.743 129.476 103.589 129.399 103.469 129.406C103.35 129.412 103.251 129.46 103.175 129.549C103.087 129.65 103.056 129.767 103.084 129.899C103.113 130.028 103.2 130.155 103.344 130.278C103.486 130.398 103.636 130.472 103.795 130.499C103.957 130.528 104.113 130.503 104.264 130.423L104.116 130.745C103.96 130.825 103.788 130.848 103.598 130.814C103.412 130.777 103.222 130.677 103.031 130.513ZM109.212 132.107C109.38 132.25 109.5 132.409 109.572 132.584C109.644 132.759 109.658 132.943 109.614 133.136C109.572 133.332 109.464 133.531 109.288 133.735L108.256 134.928L107.878 134.606L108.873 133.456C109.046 133.255 109.13 133.063 109.123 132.881C109.117 132.699 109.028 132.535 108.858 132.39C108.732 132.282 108.599 132.214 108.46 132.186C108.32 132.158 108.18 132.172 108.04 132.229C107.902 132.288 107.768 132.393 107.637 132.545L106.713 133.612L106.336 133.29L107.33 132.14C107.504 131.94 107.587 131.748 107.581 131.566C107.577 131.386 107.489 131.222 107.315 131.074C107.192 130.969 107.061 130.903 106.921 130.874C106.782 130.846 106.642 130.86 106.501 130.917C106.361 130.974 106.225 131.078 106.094 131.229L105.171 132.297L104.793 131.975L106.586 129.902L106.948 130.211L106.471 130.762L106.534 130.571C106.717 130.491 106.909 130.472 107.111 130.513C107.313 130.553 107.504 130.651 107.685 130.805C107.884 130.975 108.013 131.171 108.072 131.393C108.133 131.613 108.1 131.841 107.973 132.077L107.874 131.883C108.074 131.778 108.295 131.744 108.536 131.782C108.777 131.82 109.002 131.928 109.212 132.107ZM109.859 136.336C109.636 136.145 109.479 135.932 109.388 135.695C109.299 135.461 109.276 135.224 109.319 134.984C109.365 134.747 109.476 134.525 109.655 134.319C109.833 134.113 110.035 133.969 110.262 133.886C110.491 133.805 110.723 133.787 110.957 133.833C111.196 133.878 111.415 133.986 111.615 134.156C111.817 134.328 111.957 134.524 112.035 134.745C112.113 134.966 112.125 135.194 112.072 135.429C112.024 135.664 111.907 135.889 111.722 136.103C111.709 136.118 111.692 136.135 111.671 136.154C111.653 136.175 111.635 136.193 111.616 136.209L109.842 134.696L110.075 134.426L111.653 135.772L111.418 135.735C111.536 135.604 111.611 135.462 111.643 135.308C111.676 135.155 111.666 135.006 111.613 134.861C111.565 134.716 111.474 134.587 111.341 134.473C111.21 134.361 111.067 134.291 110.913 134.264C110.761 134.234 110.61 134.248 110.46 134.306C110.312 134.361 110.179 134.456 110.062 134.592L110.008 134.654C109.888 134.792 109.812 134.943 109.781 135.106C109.754 135.269 109.772 135.43 109.836 135.588C109.899 135.747 110.006 135.89 110.155 136.017C110.279 136.122 110.408 136.196 110.544 136.24C110.682 136.285 110.826 136.299 110.974 136.28L110.973 136.7C110.784 136.729 110.593 136.712 110.402 136.649C110.213 136.588 110.033 136.483 109.859 136.336Z" fill="#818181"/>
<path fill-rule="evenodd" clip-rule="evenodd" d="M85.618 168.774C90.8442 168.256 94.9258 163.846 94.9258 158.484C94.9258 152.772 90.2956 148.142 84.5838 148.142C78.8721 148.142 74.2419 152.772 74.2419 158.484C74.2419 163.846 78.3235 168.256 83.5497 168.774V179.168C83.5497 179.739 84.0127 180.202 84.5838 180.202C85.155 180.202 85.618 179.739 85.618 179.168V168.774Z" fill="#101223"/>
<circle cx="84.5839" cy="158.484" r="5.17098" fill="white"/>
<circle cx="181.5" cy="324.5" r="35.5" fill="#101223" fill-opacity="0.1"/>
<path fill-rule="evenodd" clip-rule="evenodd" d="M182.662 327.315C187.888 326.796 191.969 322.386 191.969 317.024C191.969 311.312 187.339 306.682 181.627 306.682C175.916 306.682 171.285 311.312 171.285 317.024C171.285 322.386 175.367 326.796 180.593 327.315V337.707C180.593 338.279 181.056 338.742 181.627 338.742C182.199 338.742 182.662 338.279 182.662 337.707V327.315Z" fill="#101223"/>
<circle cx="181.627" cy="317.024" r="5.17098" fill="white"/>
<rect x="149" y="199" width="201" height="72" rx="36" fill="white"/>
<circle cx="185" cy="235" r="32" fill="#45B289"/>
<path d="M233.118 240H231.391V229.558H227.83V228.022H236.679V229.558H233.118V240ZM238.945 240V227.424H240.555V232.538H240.68C241.145 231.425 242.174 230.794 243.543 230.794C245.511 230.794 246.582 231.981 246.582 234.148V240H244.921V234.555C244.921 233.019 244.282 232.28 242.946 232.28C241.543 232.28 240.613 233.251 240.613 234.712V240H238.945ZM255.571 237.609H257.165C256.924 239.128 255.43 240.174 253.479 240.174C250.939 240.174 249.487 238.68 249.487 236.107V234.729C249.487 232.347 251.039 230.778 253.388 230.778C255.754 230.778 257.19 232.338 257.19 234.912V235.891H251.122V236.298C251.122 237.825 252.043 238.805 253.471 238.805C254.542 238.805 255.347 238.348 255.571 237.609ZM253.372 232.139C251.969 232.139 251.122 233.102 251.122 234.721H255.555C255.555 233.11 254.741 232.139 253.372 232.139ZM274.58 240H270.488V228.022H274.522C276.763 228.022 278.1 229.134 278.1 230.985C278.1 232.305 277.236 233.393 276.008 233.6V233.725C277.618 233.866 278.697 235.053 278.697 236.638C278.697 238.738 277.153 240 274.58 240ZM272.189 229.433V233.127H273.908C275.493 233.127 276.365 232.471 276.365 231.292C276.365 230.105 275.551 229.433 274.099 229.433H272.189ZM272.189 238.572H274.148C275.975 238.572 276.904 237.883 276.904 236.505C276.904 235.169 275.95 234.48 274.107 234.48H272.189V238.572ZM284.5 235.966V238.722H287.247V240H281.088V238.722H282.881V232.23H280.914V230.952H284.491V233.26H284.724C285.081 231.558 286.135 230.72 287.87 230.72C288.384 230.72 288.874 230.786 289.173 230.911V232.737C288.766 232.587 288.177 232.479 287.679 232.479C285.637 232.479 284.5 233.75 284.5 235.966ZM295.457 228.835C294.718 228.835 294.17 228.321 294.17 227.607C294.17 226.885 294.718 226.37 295.457 226.37C296.204 226.37 296.743 226.885 296.743 227.607C296.743 228.321 296.204 228.835 295.457 228.835ZM299.275 240H291.68V238.655H294.726V232.297H291.746V230.952H296.353V238.655H299.275V240ZM305.119 240.149C303.035 240.149 301.707 238.664 301.707 236.298V234.654C301.707 232.289 303.035 230.803 305.119 230.803C306.422 230.803 307.376 231.375 307.742 232.388H307.899V227.424H309.609V240H307.941V238.572H307.783C307.352 239.593 306.422 240.149 305.119 240.149ZM305.667 238.672C307.061 238.672 307.941 237.692 307.941 236.14V234.787C307.941 233.227 307.061 232.247 305.667 232.247C304.272 232.247 303.392 233.235 303.392 234.787V236.14C303.392 237.692 304.272 238.672 305.667 238.672ZM316.067 243.395C313.893 243.395 312.448 242.457 312.274 240.93H313.917C314.092 241.635 314.947 242.092 316.092 242.092C317.586 242.092 318.408 241.345 318.408 239.983V238.473H318.25C317.894 239.444 316.873 240.05 315.544 240.05C313.461 240.05 312.116 238.556 312.116 236.198V234.654C312.116 232.289 313.469 230.803 315.603 230.803C316.914 230.803 317.91 231.4 318.275 232.388H318.433V230.952H320.077V239.992C320.077 242.117 318.574 243.395 316.067 243.395ZM313.81 236.041C313.81 237.584 314.706 238.581 316.109 238.581C317.503 238.581 318.408 237.584 318.408 236.041V234.787C318.408 233.235 317.503 232.247 316.109 232.247C314.706 232.247 313.81 233.243 313.81 234.787V236.041ZM329.133 237.609H330.727C330.486 239.128 328.992 240.174 327.041 240.174C324.501 240.174 323.048 238.68 323.048 236.107V234.729C323.048 232.347 324.601 230.778 326.95 230.778C329.315 230.778 330.751 232.338 330.751 234.912V235.891H324.684V236.298C324.684 237.825 325.605 238.805 327.033 238.805C328.104 238.805 328.909 238.348 329.133 237.609ZM326.933 232.139C325.53 232.139 324.684 233.102 324.684 234.721H329.116C329.116 233.11 328.303 232.139 326.933 232.139Z" fill="black"/>
<rect x="55" y="70" width="180" height="72" rx="36" fill="white"/>
<circle cx="91" cy="106" r="32" fill="#53B1C5"/>
<path d="M137.118 113H135.391V102.558H131.83V101.022H140.679V102.558H137.118V113ZM142.945 113V100.424H144.555V105.538H144.68C145.145 104.425 146.174 103.794 147.543 103.794C149.511 103.794 150.582 104.981 150.582 107.148V113H148.921V107.555C148.921 106.019 148.282 105.28 146.946 105.28C145.543 105.28 144.613 106.251 144.613 107.712V113H142.945ZM159.571 110.609H161.165C160.924 112.128 159.43 113.174 157.479 113.174C154.939 113.174 153.487 111.68 153.487 109.107V107.729C153.487 105.347 155.039 103.778 157.388 103.778C159.754 103.778 161.19 105.338 161.19 107.912V108.891H155.122V109.298C155.122 110.825 156.043 111.805 157.471 111.805C158.542 111.805 159.347 111.348 159.571 110.609ZM157.372 105.139C155.969 105.139 155.122 106.102 155.122 107.721H159.555C159.555 106.11 158.741 105.139 157.372 105.139ZM174.554 101.022H178.655C181.037 101.022 182.589 102.558 182.589 104.932C182.589 107.297 181.012 108.833 178.605 108.833H176.289V113H174.554V101.022ZM176.289 102.5V107.364H178.231C179.917 107.364 180.83 106.509 180.83 104.932C180.83 103.346 179.917 102.5 178.231 102.5H176.289ZM187.794 113.149C186.067 113.149 184.922 112.062 184.922 110.427C184.922 108.816 186.084 107.87 188.192 107.746L190.566 107.621V106.824C190.566 105.787 189.919 105.206 188.757 105.206C187.794 105.206 187.105 105.621 186.889 106.334H185.262C185.428 104.84 186.848 103.828 188.79 103.828C190.973 103.828 192.218 104.923 192.218 106.824V113.008H190.633V111.688H190.475C190.043 112.618 189.072 113.149 187.794 113.149ZM188.309 111.763C189.604 111.763 190.566 110.908 190.566 109.754V108.8L188.417 108.908C187.213 108.974 186.582 109.472 186.582 110.352C186.582 111.224 187.246 111.763 188.309 111.763ZM199.008 108.966V111.722H201.756V113H195.597V111.722H197.39V105.23H195.422V103.952H199V106.26H199.232C199.589 104.558 200.644 103.72 202.378 103.72C202.893 103.72 203.383 103.786 203.682 103.911V105.737C203.275 105.587 202.686 105.479 202.188 105.479C200.146 105.479 199.008 106.75 199.008 108.966ZM208.413 107.895L212.115 103.952H214.091L210.629 107.588L214.332 113H212.373L209.426 108.675L208.289 109.788V113H206.628V100.424H208.289V107.895H208.413Z" fill="black"/>
<rect x="6" y="466.728" width="180" height="72" rx="36" transform="rotate(-10.4759 6 466.728)" fill="white"/>
<circle cx="47.9455" cy="495.582" r="32" transform="rotate(-10.4759 47.9455 495.582)" fill="#D05B53"/>
<path d="M100.434 481.809L98.7361 482.123L96.8374 471.855L93.3357 472.503L93.0565 470.992L101.758 469.384L102.037 470.894L98.5352 471.541L100.434 481.809ZM106.164 480.75L103.877 468.384L105.461 468.091L106.391 473.119L106.513 473.096C106.768 471.918 107.665 471.111 109.012 470.862C110.947 470.504 112.215 471.477 112.609 473.607L113.673 479.361L112.041 479.663L111.051 474.309C110.772 472.799 110.009 472.188 108.695 472.431C107.315 472.686 106.577 473.811 106.843 475.247L107.805 480.447L106.164 480.75ZM122.079 475.376L123.646 475.086C123.685 476.624 122.406 477.924 120.488 478.279C117.99 478.74 116.29 477.535 115.822 475.005L115.572 473.65C115.139 471.307 116.38 469.483 118.69 469.055C121.016 468.625 122.712 469.899 123.18 472.429L123.358 473.392L117.391 474.495L117.465 474.895C117.743 476.397 118.827 477.193 120.231 476.933C121.284 476.739 121.992 476.143 122.079 475.376ZM118.921 470.397C117.541 470.652 116.884 471.753 117.178 473.345L121.537 472.539C121.244 470.955 120.268 470.148 118.921 470.397ZM103.507 501.58L99.483 502.324L97.3051 490.546L101.272 489.812C103.476 489.405 104.992 490.256 105.329 492.076C105.569 493.374 104.918 494.6 103.747 495.027L103.77 495.15C105.379 494.996 106.656 495.967 106.944 497.526C107.326 499.591 106.037 501.112 103.507 501.58ZM99.235 491.624L99.9066 495.256L101.596 494.944C103.155 494.656 103.893 493.852 103.679 492.693C103.463 491.526 102.541 491.013 101.112 491.277L99.235 491.624ZM100.897 500.611L102.823 500.255C104.619 499.923 105.408 499.076 105.157 497.721C104.914 496.407 103.85 495.903 102.038 496.238L100.153 496.587L100.897 500.611ZM115.381 496.953L116.949 496.664C116.988 498.201 115.709 499.501 113.791 499.856C111.293 500.318 109.593 499.113 109.125 496.582L108.875 495.227C108.441 492.885 109.683 491.06 111.993 490.633C114.319 490.203 116.015 491.476 116.483 494.006L116.661 494.97L110.694 496.073L110.768 496.473C111.046 497.975 112.13 498.77 113.534 498.511C114.587 498.316 115.295 497.721 115.381 496.953ZM112.224 491.974C110.844 492.229 110.187 493.33 110.481 494.922L114.84 494.116C114.547 492.532 113.571 491.725 112.224 491.974ZM122.928 498.141C121.23 498.455 119.906 497.594 119.609 495.986C119.316 494.403 120.287 493.261 122.337 492.755L124.649 492.201L124.504 491.417C124.316 490.397 123.573 489.943 122.431 490.155C121.484 490.33 120.882 490.863 120.799 491.604L119.2 491.9C119.091 490.401 120.303 489.147 122.213 488.794C124.359 488.397 125.783 489.248 126.129 491.117L127.253 497.198L125.694 497.486L125.454 496.188L125.299 496.217C125.044 497.21 124.185 497.909 122.928 498.141ZM123.182 496.684C124.456 496.449 125.247 495.433 125.037 494.299L124.864 493.36L122.769 493.857C121.598 494.141 121.068 494.746 121.228 495.611C121.386 496.468 122.137 496.878 123.182 496.684ZM136.911 489.166L135.294 489.464C134.949 488.465 134.036 488 132.95 488.201C131.506 488.468 130.893 489.628 131.231 491.457L131.37 492.208C131.708 494.036 132.695 494.9 134.14 494.633C135.234 494.431 135.907 493.69 135.885 492.656L137.501 492.357C137.631 494.291 136.49 495.659 134.417 496.042C131.944 496.499 130.241 495.278 129.761 492.682L129.559 491.589C129.079 488.993 130.234 487.251 132.707 486.794C134.78 486.411 136.334 487.28 136.911 489.166ZM140.801 494.684L138.515 482.318L140.098 482.026L141.028 487.054L141.15 487.031C141.405 485.853 142.303 485.045 143.649 484.796C145.584 484.438 146.853 485.411 147.247 487.541L148.311 493.296L146.678 493.598L145.688 488.243C145.409 486.733 144.646 486.123 143.332 486.366C141.952 486.621 141.215 487.745 141.48 489.182L142.442 494.381L140.801 494.684Z" fill="black"/>
<rect x="222.327" y="404" width="190" height="72" rx="36" transform="rotate(12.291 222.327 404)" fill="white"/>
<circle cx="249.838" cy="447.838" r="32" transform="rotate(12.291 249.838 447.838)" fill="#292D5A"/>
<path d="M295.829 463.936L294.142 463.568L296.365 453.365L292.886 452.607L293.212 451.106L301.858 452.99L301.531 454.491L298.052 453.733L295.829 463.936ZM301.523 465.176L304.2 452.889L305.773 453.231L304.685 458.227L304.806 458.254C305.497 457.266 306.637 456.869 307.975 457.16C309.898 457.579 310.691 458.967 310.23 461.084L308.984 466.802L307.362 466.448L308.521 461.128C308.848 459.627 308.381 458.769 307.075 458.485C305.704 458.186 304.589 458.937 304.278 460.365L303.153 465.531L301.523 465.176ZM318.277 466.38L319.834 466.719C319.275 468.152 317.593 468.856 315.687 468.44C313.205 467.9 312.104 466.131 312.652 463.616L312.945 462.27C313.452 459.942 315.303 458.74 317.598 459.24C319.91 459.744 320.98 461.574 320.433 464.088L320.224 465.045L314.295 463.754L314.209 464.151C313.884 465.643 314.575 466.797 315.97 467.1C317.017 467.328 317.901 467.054 318.277 466.38ZM317.292 460.566C315.921 460.268 314.889 461.028 314.545 462.61L318.876 463.554C319.218 461.98 318.63 460.858 317.292 460.566ZM334.957 460.201L338.964 461.074C341.292 461.582 342.481 463.412 341.976 465.732C341.472 468.044 339.604 469.208 337.252 468.696L334.99 468.203L334.103 472.274L332.407 471.905L334.957 460.201ZM336.338 462.014L335.302 466.767L337.2 467.181C338.847 467.539 339.921 466.898 340.257 465.357C340.594 463.808 339.882 462.787 338.236 462.428L336.338 462.014ZM345.312 474.869C343.625 474.502 342.737 473.195 343.085 471.598C343.428 470.024 344.765 469.347 346.852 469.674L349.198 470.058L349.367 469.279C349.588 468.266 349.079 467.56 347.944 467.313C347.003 467.108 346.241 467.366 345.879 468.018L344.289 467.672C344.769 466.247 346.372 465.56 348.27 465.973C350.403 466.438 351.386 467.774 350.981 469.631L349.665 475.673L348.116 475.336L348.397 474.046L348.243 474.013C347.623 474.829 346.561 475.141 345.312 474.869ZM346.11 473.624C347.375 473.9 348.498 473.27 348.744 472.142L348.947 471.21L346.823 470.857C345.633 470.666 344.911 471.018 344.723 471.878C344.538 472.73 345.072 473.398 346.11 473.624ZM357.16 473.169L356.573 475.862L359.258 476.447L358.986 477.696L352.968 476.384L353.24 475.135L354.992 475.517L356.373 469.175L354.451 468.756L354.723 467.507L358.219 468.268L357.728 470.523L357.955 470.573C358.666 468.986 359.874 468.391 361.569 468.76C362.072 468.87 362.537 469.039 362.802 469.224L362.413 471.009C362.048 470.776 361.495 470.545 361.008 470.439C359.013 470.005 357.632 471.003 357.16 473.169ZM366.577 474.125L371.034 471.06L372.964 471.481L368.808 474.296L371.273 480.373L369.359 479.956L367.4 475.103L366.052 475.947L365.369 479.086L363.746 478.733L366.424 466.445L368.046 466.799L366.455 474.098L366.577 474.125Z" fill="black"/>
</g>
<defs>
<linearGradient id="paint0_linear_19_271" x1="195" y1="560" x2="195" y2="460" gradientUnits="userSpaceOnUse">
<stop stop-color="white"/>
<stop offset="1" stop-color="white" stop-opacity="0"/>
</linearGradient>
<clipPath id="clip0_19_271">
<rect width="390" height="560" fill="white"/>
</clipPath>
</defs>
</svg>
